<svg id="logo-kairos" xmlns="http://www.w3.org/2000/svg" xmlns:xlink="http://www.w3.org/1999/xlink" width="635.185" height="124.984" viewBox="0 0 635.185 124.984">
  <defs>
    <linearGradient id="linear-gradient" x1="-1883.968" y1="0.5" x2="-1674.482" y2="0.5" gradientUnits="objectBoundingBox">
      <stop offset="0" stop-color="#ff6b39"/>
      <stop offset="1" stop-color="#ffb81c"/>
    </linearGradient>
    <linearGradient id="linear-gradient-2" x1="0.5" y1="0" x2="0.5" y2="1" xlink:href="#linear-gradient"/>
  </defs>
  <path id="Trazado_2929" data-name="Trazado 2929" d="M225.626,188c.013,1.062-.384,1.415-1.41,1.41-2.331-.01-4.662,0-6.993,0-3.283,1.5-6.609,3.052-9.97,4.622l-2.026.945c.018,0,.03-.007.049-.007q9.59.022,19.182,0c.808,0,1.154.318,1.141,1.132q-.034,2.167,0,4.334a9.431,9.431,0,0,0,.223,3.159,2.759,2.759,0,0,0,3,1.827,2.717,2.717,0,0,0,2.283-2.523c.039-.55.02-1.105.02-1.657V183.376q-2.721,1.1-5.509,2.3C225.631,186.45,225.616,187.227,225.626,188Z" transform="translate(-7.5 -101.576)" fill="none"/>
  <path id="Trazado_2930" data-name="Trazado 2930" d="M201.219,197.5c0,2.006,1.118,3.243,2.807,3.22,1.645-.023,2.7-1.232,2.715-3.176q.032-3.059,0-6.119a1.392,1.392,0,0,1,.174-.756q-2.846,1.327-5.7,2.644Q201.219,195.41,201.219,197.5Z" transform="translate(-10.072 -96.855)" fill="none"/>
  <path id="Trazado_2931" data-name="Trazado 2931" d="M158.433,168.734q-2.77.857-5.542,1.805,0,11.7,0,23.4a54.164,54.164,0,0,0,5.538.916Q158.433,181.8,158.433,168.734Z" transform="translate(-41.073 -111.052)" fill="none"/>
  <path id="Trazado_2932" data-name="Trazado 2932" d="M152.9,203.841c0,3.367-.358,3.006,2.973,3.014,2.887.008,2.562.217,2.564-2.627v-2.266a40.162,40.162,0,0,1-5.537-2.551Z" transform="translate(-41.076 -91.2)" fill="none"/>
  <path id="Trazado_2933" data-name="Trazado 2933" d="M178.013,151.177c0-.166-.008-.331,0-.5.049-.967-.391-1.318-1.351-1.4-4.813-.4-9.634-.537-14.46-.488a173.3,173.3,0,0,0-40.931,5.449c-1.888.479-3.789.9-5.681,1.364-1.781.433-1.865.537-1.865,2.425q0,10.194,0,20.388c7.083-2.922,14.507-6.386,22.1-9.934C149.862,161.929,164.2,155.235,178.013,151.177Z" transform="translate(-66.197 -123.959)" fill="#b1b1b1"/>
  <path id="Trazado_2934" data-name="Trazado 2934" d="M295.08,210.01c0,.552.02,1.107-.02,1.657a2.717,2.717,0,0,1-2.283,2.523,2.759,2.759,0,0,1-3-1.827,9.429,9.429,0,0,1-.223-3.159q-.042-2.167,0-4.334c.013-.814-.333-1.135-1.141-1.132q-9.59.02-19.182,0c-.02,0-.031.007-.049.007l-.88.412a1.393,1.393,0,0,0-.174.756q.025,3.059,0,6.119c-.02,1.944-1.07,3.153-2.715,3.176-1.689.023-2.805-1.214-2.807-3.22q0-2.093,0-4.187c-19.539,8.993-39.332,17.171-57.194,17.173h-.008A46.661,46.661,0,0,1,188.8,221.1v2.266c0,2.845.323,2.635-2.564,2.627-3.331-.008-2.973.353-2.973-3.014v-4.431c-10.417-5.854-18.432-16.476-24.24-32.065a2.365,2.365,0,0,1,3.6-2.749,54.791,54.791,0,0,0,20.634,9.5q0-11.7,0-23.4c-5.844,1.993-11.676,4.23-17.439,6.448-15.381,5.92-31.233,12-46.85,13.2q0,17.371,0,34.741c0,1.764-.018,1.779-1.771,1.784-2.2,0-4.4-.012-6.605.008a6.15,6.15,0,0,0-2.961.581,4.065,4.065,0,0,0-2.075,3.806,3.955,3.955,0,0,0,2.915,3.489,10.269,10.269,0,0,0,2.776.236q52.785,0,105.569,0t105.573,0a10.761,10.761,0,0,0,2.651-.2,3.986,3.986,0,0,0,3.065-3.9,3.873,3.873,0,0,0-3.285-3.826c-2.733-.422-5.494-.127-8.244-.186-1.9-.041-1.9-.013-1.9-1.912V185.945a111.065,111.065,0,0,0-19.6,6.2Z" transform="translate(-71.446 -110.342)" fill="#b1b1b1"/>
  <path id="Trazado_2935" data-name="Trazado 2935" d="M240.605,191.632V143.367c0-2.443,0-2.451-2.4-3.013-5.113-1.2-10.223-2.395-15.343-3.558-1.8-.408-1.85-.336-1.85,1.535q0,25.624,0,51.249c1.2-.063,2.392-.1,3.585-.1A59.106,59.106,0,0,1,240.605,191.632Z" transform="translate(2.624 -131.85)" fill="#b1b1b1"/>
  <path id="Trazado_2936" data-name="Trazado 2936" d="M220.711,194.557a2.364,2.364,0,0,1-3.6,2.747,54.046,54.046,0,0,0-32.918-10.836c-9.151,0-18.532,2.029-27.92,4.928q0,13.063,0,26.125a58.483,58.483,0,0,0,6.748.425h.01c16.65,0,34.058-6.7,50.893-13.18,5.332-2.052,10.717-4.124,16.131-6.009q0-4.761,0-9.524,0-26.644,0-53.286c0-2.056-.015-2.07-2.029-2.107-5.753-.1-11.51-.229-17.26,0a212.293,212.293,0,0,0-41.789,5.918c-3.578.873-7.175,1.675-10.76,2.52-1.909.451-1.939.5-1.939,2.476v14.7a77.412,77.412,0,0,1,18.073-2.388C196.146,157.07,211.313,169.332,220.711,194.557Z" transform="translate(-38.908 -133.714)" fill="#b1b1b1"/>
  <path id="Trazado_2937" data-name="Trazado 2937" d="M205.954,168.973c3.134-.035,6.267-.013,9.4-.013,3.091,0,6.182-.026,9.273.016,1.034.013,1.422-.346,1.408-1.4q-.066-5.544,0-11.088c.011-1.021-.412-1.329-1.361-1.326q-9.4.03-18.8,0c-.911,0-1.292.338-1.285,1.277q.042,5.608,0,11.215C204.577,168.66,204.993,168.985,205.954,168.973Z" transform="translate(-7.91 -119.837)" fill="#b1b1b1"/>
  <path id="Trazado_2938" data-name="Trazado 2938" d="M226.038,168.292c.013-1.077-.415-1.393-1.428-1.389q-9.334.042-18.672,0c-.977,0-1.359.349-1.349,1.342.021,2.4,0,4.795,0,7.193a119.613,119.613,0,0,1,21.453-4.979C226.043,169.738,226.028,169.015,226.038,168.292Z" transform="translate(-7.911 -112.236)" fill="#b1b1b1"/>
  <path id="Trazado_2939" data-name="Trazado 2939" d="M220.938,187.1c-.01-.776,0-1.553,0-2.331-2.758,1.186-5.561,2.443-8.4,3.741,2.331,0,4.662-.01,6.993,0C220.554,188.516,220.951,188.163,220.938,187.1Z" transform="translate(-2.812 -100.674)" fill="#b1b1b1"/>
  <path id="Trazado_2940" data-name="Trazado 2940" d="M205.951,157.162q9.4-.04,18.793,0c.908,0,1.3-.3,1.287-1.249q-.049-5.542,0-11.085c.012-1.006-.376-1.337-1.346-1.326-3.132.038-6.266.015-9.4.013-3.089,0-6.18.028-9.269-.015-1.021-.015-1.446.318-1.435,1.385q.062,5.478,0,10.958C204.58,156.844,204.981,157.167,205.951,157.162Z" transform="translate(-7.912 -127.382)" fill="#b1b1b1"/>
  <path id="Trazado_2941" data-name="Trazado 2941" d="M206.068,144.033c3.088-.036,6.177-.012,9.265-.012q4.442,0,8.884,0c1.776,0,1.8-.028,1.8-1.746,0-1.316-.057-2.635.018-3.947a1.4,1.4,0,0,0-1.367-1.7c-4.793-.824-9.608-1.492-14.44-2.038-1.385-.156-2.779-.242-4.16-.438-1.019-.143-1.5.13-1.484,1.249.046,2.377.051,4.755,0,7.132C204.561,143.631,204.981,144.046,206.068,144.033Z" transform="translate(-7.912 -133.455)" fill="#b1b1b1"/>
  <path id="Trazado_2942" data-name="Trazado 2942" d="M204.691,190.833l.88-.412A.947.947,0,0,0,204.691,190.833Z" transform="translate(-7.843 -97.017)" fill="gray"/>
  <path id="Trazado_2943" data-name="Trazado 2943" d="M204.691,190.833l.88-.412A.947.947,0,0,0,204.691,190.833Z" transform="translate(-7.843 -97.017)" fill="url(#linear-gradient)"/>
  <g id="Grupo_231" data-name="Grupo 231" transform="translate(278.98 29.439)">
    <path id="Trazado_2944" data-name="Trazado 2944" d="M297.6,244.6l-15.788-26.688-8.38,8.894V244.6h-18.7V154.177h18.7V203.9l23.925-24.74h21.254l-23.926,25.227L319.7,244.6Z" transform="translate(-254.726 -149.911)" fill="#1e22aa"/>
    <path id="Trazado_2945" data-name="Trazado 2945" d="M338.264,235.122v-7.677a20.98,20.98,0,0,1-8.5,6.336,30.83,30.83,0,0,1-12.024,2.194q-10.324,0-16.4-5.668T295.27,215.5q0-9.26,6.5-14.442t18.4-5.3h17.974V194.54a9.929,9.929,0,0,0-3.462-8.1q-3.462-2.864-10.141-2.864-9.108,0-19.432,5.727l-5.829-12.917a77.967,77.967,0,0,1,14.573-5.729,57.457,57.457,0,0,1,14.939-1.827q13.116,0,20.343,6.215t7.347,17.3l.121,42.776Zm-5.223-15.356a10.948,10.948,0,0,0,5.1-7.068v-5.849h-14.7q-5.464,0-8.076,1.766t-2.61,5.668a7.417,7.417,0,0,0,2.731,6.032,11.391,11.391,0,0,0,7.47,2.255A17.871,17.871,0,0,0,333.041,219.766Z" transform="translate(-228.717 -140.431)" fill="#1e22aa"/>
    <path id="Trazado_2946" data-name="Trazado 2946" d="M359.384,154.512a11.428,11.428,0,0,1,0,15.112,9.823,9.823,0,0,1-7.347,2.924,9.556,9.556,0,0,1-7.226-2.986,11.345,11.345,0,0,1,0-15.05,9.664,9.664,0,0,1,7.226-2.925A9.818,9.818,0,0,1,359.384,154.512Zm-16.577,26.2h18.7v65.565h-18.7Z" transform="translate(-198.769 -151.587)" fill="#1e22aa"/>
    <path id="Trazado_2947" data-name="Trazado 2947" d="M392.386,172.116a25.866,25.866,0,0,1,12.753-3.289V186.5a25.669,25.669,0,0,0-2.915-.122q-8.625,0-13.662,4.691t-5.041,12.492v31.564h-18.7V169.557h18.7v11.821A23.828,23.828,0,0,1,392.386,172.116Z" transform="translate(-184.104 -140.431)" fill="#1e22aa"/>
    <path id="Trazado_2948" data-name="Trazado 2948" d="M445.567,173.044a29.846,29.846,0,0,1,12.328,11.7,37.275,37.275,0,0,1,0,35.036A30.119,30.119,0,0,1,445.567,231.6a42.1,42.1,0,0,1-36.676,0,30.109,30.109,0,0,1-12.328-11.821,37.275,37.275,0,0,1,0-35.036,29.836,29.836,0,0,1,12.328-11.7,42.644,42.644,0,0,1,36.676,0ZM415.449,189.5q-4.555,5-4.555,13.04t4.555,13.04a16.387,16.387,0,0,0,23.56,0q4.555-5,4.555-13.04T439.01,189.5a16.387,16.387,0,0,0-23.56,0Z" transform="translate(-166.543 -140.383)" fill="#1e22aa"/>
    <path id="Trazado_2949" data-name="Trazado 2949" d="M475.693,184.169a31.536,31.536,0,0,0-9.353-1.645,10.688,10.688,0,0,0-5.465,1.219,3.974,3.974,0,0,0-2.065,3.657,4.528,4.528,0,0,0,2.794,4.143,53.339,53.339,0,0,0,9.109,3.291,96.143,96.143,0,0,1,11.417,4.082,21.318,21.318,0,0,1,7.772,5.972q3.28,3.96,3.278,10.42,0,9.749-7.469,15.172T466.583,235.9a50.171,50.171,0,0,1-15.423-2.375,39.738,39.738,0,0,1-12.874-6.763l6.073-12.675a38.177,38.177,0,0,0,11.111,6.032,35.332,35.332,0,0,0,11.6,2.133,12.141,12.141,0,0,0,6.013-1.28,4.151,4.151,0,0,0,2.246-3.839,4.856,4.856,0,0,0-2.853-4.386,47.834,47.834,0,0,0-9.169-3.413,92.124,92.124,0,0,1-11.113-3.9,19.789,19.789,0,0,1-7.59-5.91q-3.159-3.961-3.158-10.3,0-9.749,7.287-15.112t18.46-5.363a48.942,48.942,0,0,1,13.36,1.889,44.648,44.648,0,0,1,12.145,5.424l-6.438,12.795A54.549,54.549,0,0,0,475.693,184.169Z" transform="translate(-136.975 -140.479)" fill="#1e22aa"/>
  </g>
  <path id="Trazado_2950" data-name="Trazado 2950" d="M319.065,188.5c-37.676-34.255-144.379,91.468-179.591-3.049C197.921,228.139,261.995,131.936,319.065,188.5Z" transform="translate(-49.68 -110.141)" fill="url(#linear-gradient-2)"/>
  <path id="Trazado_2951" data-name="Trazado 2951" d="M84.771,182.231c37.675,34.255,144.379-91.466,179.589,3.049C205.915,142.6,141.839,238.8,84.771,182.231Z" transform="translate(-84.771 -123.606)" fill="url(#linear-gradient-2)"/>
</svg>
