<svg id="settings" xmlns="http://www.w3.org/2000/svg" xmlns:xlink="http://www.w3.org/1999/xlink" width="24" height="24" viewBox="0 0 24 24">
  <defs>
    <linearGradient id="linear-gradient" x1="0.5" x2="0.5" y2="1" gradientUnits="objectBoundingBox">
      <stop offset="0" stop-color="#ff6b39"/>
      <stop offset="1" stop-color="#ffb81c"/>
    </linearGradient>
  </defs>
  <g id="Grupo_215" data-name="Grupo 215" transform="translate(7.2 12.827)">
    <path id="Trazado_2821" data-name="Trazado 2821" d="M224.512,299.46c.023.03.046.06.068.091C224.558,299.52,224.535,299.49,224.512,299.46Z" transform="translate(-221.188 -298.25)" fill="#78b9eb"/>
    <path id="Trazado_2822" data-name="Trazado 2822" d="M219.255,293.393c.016.017.031.035.047.052C219.286,293.428,219.271,293.41,219.255,293.393Z" transform="translate(-216.177 -292.467)" fill="#78b9eb"/>
    <path id="Trazado_2823" data-name="Trazado 2823" d="M229.4,306.654c.014.024.03.048.044.073C229.432,306.7,229.416,306.68,229.4,306.654Z" transform="translate(-225.849 -305.107)" fill="#78b9eb"/>
    <path id="Trazado_2824" data-name="Trazado 2824" d="M233.813,315.418c.011.027.02.055.03.08C233.833,315.473,233.824,315.445,233.813,315.418Z" transform="translate(-230.053 -313.46)" fill="#78b9eb"/>
    <path id="Trazado_2825" data-name="Trazado 2825" d="M211.738,286.882c.025.019.052.038.076.057C211.79,286.919,211.763,286.9,211.738,286.882Z" transform="translate(-209.013 -286.262)" fill="#78b9eb"/>
    <path id="Trazado_2826" data-name="Trazado 2826" d="M204.655,282.18c.032.018.064.04.1.058Z" transform="translate(-202.262 -281.78)" fill="#78b9eb"/>
    <path id="Trazado_2827" data-name="Trazado 2827" d="M209.2,360.378a4.445,4.445,0,0,0,.662-.51.9.9,0,0,0,.147-.18,3.953,3.953,0,0,0,.48-1.144A3.2,3.2,0,0,1,209.2,360.378Z" transform="translate(-206.589 -354.565)" fill="#78b9eb"/>
    <path id="Trazado_2828" data-name="Trazado 2828" d="M179.123,273.647c.038,0,.075.011.112.017C179.2,273.66,179.161,273.651,179.123,273.647Z" transform="translate(-177.927 -273.647)" fill="#78b9eb"/>
    <path id="Trazado_2829" data-name="Trazado 2829" d="M197.453,278.528l.04.02Z" transform="translate(-195.397 -278.299)" fill="#78b9eb"/>
    <path id="Trazado_2830" data-name="Trazado 2830" d="M236.433,323.234c.01.038.02.075.029.113C236.453,323.309,236.443,323.272,236.433,323.234Z" transform="translate(-232.55 -320.91)" fill="#78b9eb"/>
    <path id="Trazado_2831" data-name="Trazado 2831" d="M164.9,409.25c-.091,0-.179-.009-.268-.017C164.723,409.24,164.811,409.25,164.9,409.25Z" transform="translate(-164.117 -402.877)" fill="#78b9eb"/>
    <path id="Trazado_2832" data-name="Trazado 2832" d="M186.962,407.313l-.048.012Z" transform="translate(-185.352 -401.047)" fill="#78b9eb"/>
    <path id="Trazado_2833" data-name="Trazado 2833" d="M238.285,332.4c0,.024.008.046.011.07C238.293,332.445,238.288,332.423,238.285,332.4Z" transform="translate(-234.315 -329.645)" fill="#78b9eb"/>
    <path id="Trazado_2834" data-name="Trazado 2834" d="M153.985,407.54a3.494,3.494,0,0,1-.385-.073A3.494,3.494,0,0,0,153.985,407.54Z" transform="translate(-153.6 -401.194)" fill="#78b9eb"/>
    <path id="Trazado_2835" data-name="Trazado 2835" d="M178.392,408.969l-.054.008Z" transform="translate(-177.178 -402.626)" fill="#78b9eb"/>
    <path id="Trazado_2836" data-name="Trazado 2836" d="M204.538,398.4c-.057.037-.115.072-.174.106C204.424,398.478,204.48,398.44,204.538,398.4Z" transform="translate(-201.984 -392.556)" fill="#78b9eb"/>
    <path id="Trazado_2837" data-name="Trazado 2837" d="M238.776,342.349c0,.035,0,.069-.005.1C238.773,342.418,238.776,342.381,238.776,342.349Z" transform="translate(-234.779 -339.129)" fill="#78b9eb"/>
    <path id="Trazado_2838" data-name="Trazado 2838" d="M237.726,351.053c-.007.047-.013.095-.022.141C237.712,351.147,237.719,351.1,237.726,351.053Z" transform="translate(-233.762 -347.425)" fill="#78b9eb"/>
    <path id="Trazado_2839" data-name="Trazado 2839" d="M187.631,275.277c.034.009.069.016.1.026C187.7,275.293,187.665,275.286,187.631,275.277Z" transform="translate(-186.036 -275.201)" fill="#78b9eb"/>
  </g>
  <path id="Trazado_2840" data-name="Trazado 2840" d="M9.333,188.4h.44a.8.8,0,0,1,.745.516q.068.18.148.354a.8.8,0,0,1-.16.894l-.312.316a.8.8,0,0,0,0,1.13l1.13,1.13a.8.8,0,0,0,1.13,0l.314-.313a.8.8,0,0,1,.894-.16q.174.08.354.148a.8.8,0,0,1,.517.744v.44a.8.8,0,0,0,.8.8h1.6a.8.8,0,0,0,.8-.8v-.44a.8.8,0,0,1,.516-.745q.18-.068.354-.148a.8.8,0,0,1,.894.16l.314.313a.8.8,0,0,0,1.13,0l1.13-1.13a.8.8,0,0,0,0-1.13l-.313-.314a.8.8,0,0,1-.16-.894q.08-.174.148-.354a.8.8,0,0,1,.746-.517h.44a.8.8,0,0,0,.8-.8V186a.8.8,0,0,0-.8-.8h-.44a.8.8,0,0,1-.745-.516q-.068-.18-.148-.354a.8.8,0,0,1,.16-.894l.313-.314a.8.8,0,0,0,0-1.13l-1.13-1.13a.8.8,0,0,0-1.13,0l-.314.313a.8.8,0,0,1-.894.16q-.174-.08-.354-.148a.8.8,0,0,1-.517-.746V180a.8.8,0,0,0-.8-.8h-1.6a.8.8,0,0,0-.8.8v.44a.8.8,0,0,1-.516.745q-.18.068-.354.148a.8.8,0,0,1-.894-.16l-.316-.312a.8.8,0,0,0-1.13,0l-1.129,1.131a.8.8,0,0,0,0,1.13l.313.314a.8.8,0,0,1,.16.894q-.08.174-.148.354a.8.8,0,0,1-.746.516h-.44a.8.8,0,0,0-.8.8v1.6A.8.8,0,0,0,9.333,188.4Zm6-4.7a3.29,3.29,0,0,1,.8-.1,3.205,3.205,0,0,1,.4.027c.038,0,.075.011.112.017.1.015.192.035.286.059.034.009.069.016.1.026a3.116,3.116,0,0,1,.357.126l.04.02a3.188,3.188,0,0,1,.3.152c.032.019.064.04.1.058.08.051.16.105.236.162.025.019.052.037.076.057a3.37,3.37,0,0,1,.276.248c.016.017.031.035.047.052q.106.111.2.232c.023.03.046.06.068.091a2.731,2.731,0,0,1,.16.246c.014.024.03.048.044.073a3.208,3.208,0,0,1,.162.338c.011.027.02.054.03.08.035.093.066.188.093.285.01.038.02.075.029.113q.037.157.058.316c0,.024.008.046.011.07a3.206,3.206,0,0,1,.021.35.317.317,0,0,1,0,.048c0,.034,0,.069-.005.1,0,.1-.014.2-.028.3-.006.047-.013.094-.022.141-.014.072-.031.141-.049.211a3.954,3.954,0,0,1-.48,1.144.9.9,0,0,1-.147.18,4.444,4.444,0,0,1-.66.508l-.052.034c-.058.036-.116.074-.174.106a3.186,3.186,0,0,1-.77.312l-.048.012a3.211,3.211,0,0,1-.348.065l-.054.008a3.18,3.18,0,0,1-.36.023h-.015c-.091,0-.179-.009-.268-.017-.044,0-.089,0-.132-.009a3.5,3.5,0,0,1-.385-.074,3.2,3.2,0,0,1,0-6.2Z" transform="translate(-8.133 -170.798)" fill="url(#linear-gradient)"/>
  <g id="Grupo_216" data-name="Grupo 216" transform="translate(7.585 12.8)">
    <path id="Trazado_2841" data-name="Trazado 2841" d="M230.349,308.207a3.207,3.207,0,0,1,.162.338A3.2,3.2,0,0,0,230.349,308.207Z" transform="translate(-227.137 -306.56)" fill="#78b9eb"/>
    <path id="Trazado_2842" data-name="Trazado 2842" d="M234.453,317.158c.035.093.066.188.093.285C234.519,317.346,234.488,317.251,234.453,317.158Z" transform="translate(-231.048 -315.091)" fill="#78b9eb"/>
    <path id="Trazado_2843" data-name="Trazado 2843" d="M238.535,334.241a3.286,3.286,0,0,0-.02-.349,3.2,3.2,0,0,1,.017.4A.317.317,0,0,0,238.535,334.241Z" transform="translate(-234.92 -331.041)" fill="#78b9eb"/>
    <path id="Trazado_2844" data-name="Trazado 2844" d="M237.056,325.649q.037.157.058.316Q237.093,325.806,237.056,325.649Z" transform="translate(-233.529 -323.184)" fill="#78b9eb"/>
    <path id="Trazado_2845" data-name="Trazado 2845" d="M181.521,274.014c.1.015.192.035.286.059C181.713,274.05,181.618,274.029,181.521,274.014Z" transform="translate(-180.597 -273.97)" fill="#78b9eb"/>
    <path id="Trazado_2846" data-name="Trazado 2846" d="M170.667,273.067a3.206,3.206,0,0,1,.4.027A3.206,3.206,0,0,0,170.667,273.067Z" transform="translate(-170.252 -273.067)" fill="#78b9eb"/>
    <path id="Trazado_2847" data-name="Trazado 2847" d="M198.315,278.946a3.1,3.1,0,0,1,.3.152A3.2,3.2,0,0,0,198.315,278.946Z" transform="translate(-196.604 -278.67)" fill="#78b9eb"/>
    <path id="Trazado_2848" data-name="Trazado 2848" d="M189.833,275.84a3.12,3.12,0,0,1,.357.126A3.12,3.12,0,0,0,189.833,275.84Z" transform="translate(-188.52 -275.71)" fill="#78b9eb"/>
    <path id="Trazado_2849" data-name="Trazado 2849" d="M225.963,301.4a2.731,2.731,0,0,1,.16.246A2.856,2.856,0,0,0,225.963,301.4Z" transform="translate(-222.956 -300.069)" fill="#78b9eb"/>
    <path id="Trazado_2850" data-name="Trazado 2850" d="M220.254,294.5q.1.111.2.232Q220.36,294.613,220.254,294.5Z" transform="translate(-217.515 -293.497)" fill="#78b9eb"/>
    <path id="Trazado_2851" data-name="Trazado 2851" d="M206.7,283.418c.08.051.16.105.236.162C206.863,283.523,206.784,283.469,206.7,283.418Z" transform="translate(-204.599 -282.933)" fill="#78b9eb"/>
    <path id="Trazado_2852" data-name="Trazado 2852" d="M213.333,288.1a3.167,3.167,0,0,1,.276.248A3.373,3.373,0,0,0,213.333,288.1Z" transform="translate(-210.918 -287.397)" fill="#78b9eb"/>
    <path id="Trazado_2853" data-name="Trazado 2853" d="M188.708,400.666a3.429,3.429,0,0,1-.77.312A3.185,3.185,0,0,0,188.708,400.666Z" transform="translate(-186.714 -394.685)" fill="#78b9eb"/>
    <path id="Trazado_2854" data-name="Trazado 2854" d="M179.8,407.578a3.207,3.207,0,0,1-.348.065A3.222,3.222,0,0,0,179.8,407.578Z" transform="translate(-178.629 -401.273)" fill="#78b9eb"/>
    <path id="Trazado_2855" data-name="Trazado 2855" d="M170.374,409.161a3.182,3.182,0,0,0,.36-.022,3.165,3.165,0,0,1-.374.021Z" transform="translate(-169.96 -402.761)" fill="#78b9eb"/>
    <path id="Trazado_2856" data-name="Trazado 2856" d="M161.95,409.029c-.044,0-.089,0-.132-.009C161.861,409.026,161.906,409.025,161.95,409.029Z" transform="translate(-161.818 -402.647)" fill="#78b9eb"/>
    <path id="Trazado_2857" data-name="Trazado 2857" d="M238.193,344.55c0,.1-.014.2-.028.3C238.179,344.754,238.189,344.653,238.193,344.55Z" transform="translate(-234.586 -341.199)" fill="#78b9eb"/>
    <path id="Trazado_2858" data-name="Trazado 2858" d="M208.138,397.653l-.052.034Z" transform="translate(-205.917 -391.813)" fill="#78b9eb"/>
    <path id="Trazado_2859" data-name="Trazado 2859" d="M236.7,354.065c-.013.07-.032.141-.049.211C236.673,354.206,236.691,354.137,236.7,354.065Z" transform="translate(-233.147 -350.268)" fill="#78b9eb"/>
  </g>
  <g id="Grupo_217" data-name="Grupo 217">
    <path id="Trazado_2860" data-name="Trazado 2860" d="M14.8,176.667h-.44a.393.393,0,0,1-.37-.258c-.049-.128-.1-.253-.158-.377a.4.4,0,0,1,.08-.446l.314-.314a1.2,1.2,0,0,0,0-1.7l-1.13-1.13a1.2,1.2,0,0,0-1.7,0l-.314.313a.4.4,0,0,1-.446.08c-.124-.056-.249-.109-.378-.16a.393.393,0,0,1-.26-.371v-.44a1.2,1.2,0,0,0-1.2-1.2H7.2a1.2,1.2,0,0,0-1.2,1.2v.44a.393.393,0,0,1-.258.37c-.128.049-.253.1-.377.158a.4.4,0,0,1-.446-.08l-.314-.314a1.2,1.2,0,0,0-1.7,0l-1.13,1.134a1.2,1.2,0,0,0,0,1.7l.313.314a.4.4,0,0,1,.08.446c-.056.124-.109.249-.158.378a.393.393,0,0,1-.373.258H1.2a1.2,1.2,0,0,0-1.2,1.2v1.6a1.2,1.2,0,0,0,1.2,1.2h.44a.393.393,0,0,1,.37.258c.049.128.1.253.158.377a.4.4,0,0,1-.08.446l-.314.314a1.2,1.2,0,0,0,0,1.7l1.13,1.13a1.2,1.2,0,0,0,1.7,0l.314-.313a.4.4,0,0,1,.446-.08c.124.056.249.109.378.16a.393.393,0,0,1,.262.371v.44a1.2,1.2,0,0,0,1.2,1.2H8.8a1.2,1.2,0,0,0,1.2-1.2v-.44a.393.393,0,0,1,.258-.37c.128-.049.253-.1.377-.158a.4.4,0,0,1,.446.08l.314.314a1.2,1.2,0,0,0,1.7,0l1.13-1.13a1.2,1.2,0,0,0,0-1.7l-.313-.314a.4.4,0,0,1-.08-.446c.056-.124.109-.249.16-.378a.393.393,0,0,1,.371-.26h.44a1.2,1.2,0,0,0,1.2-1.2v-1.6A1.2,1.2,0,0,0,14.8,176.667Zm.4,2.8a.4.4,0,0,1-.4.4h-.44a1.2,1.2,0,0,0-1.12.774q-.064.168-.138.331a1.2,1.2,0,0,0,.24,1.342l.313.313a.4.4,0,0,1,0,.566h0l-1.13,1.13a.4.4,0,0,1-.566,0l-.314-.313a1.2,1.2,0,0,0-1.342-.24c-.108.049-.219.1-.33.138a1.2,1.2,0,0,0-.773,1.119v.44a.4.4,0,0,1-.4.4H7.2a.4.4,0,0,1-.4-.4v-.44a1.2,1.2,0,0,0-.774-1.12q-.168-.064-.331-.138a1.2,1.2,0,0,0-1.342.24l-.313.313a.4.4,0,0,1-.566,0h0l-1.13-1.129a.4.4,0,0,1,0-.566l.313-.314a1.2,1.2,0,0,0,.24-1.342c-.049-.108-.1-.219-.138-.33a1.2,1.2,0,0,0-1.119-.774H1.2a.4.4,0,0,1-.4-.4v-1.6a.4.4,0,0,1,.4-.4h.44a1.2,1.2,0,0,0,1.12-.774q.064-.168.138-.331a1.2,1.2,0,0,0-.24-1.342l-.314-.313a.4.4,0,0,1,0-.566h0l1.13-1.13a.4.4,0,0,1,.566,0l.314.313a1.2,1.2,0,0,0,1.342.24c.108-.049.219-.1.33-.138a1.2,1.2,0,0,0,.775-1.119v-.44a.4.4,0,0,1,.4-.4H8.8a.4.4,0,0,1,.4.4v.44a1.2,1.2,0,0,0,.774,1.12q.168.064.331.138a1.2,1.2,0,0,0,1.342-.24l.313-.313a.4.4,0,0,1,.566,0l1.13,1.13a.4.4,0,0,1,0,.566l-.313.314a1.2,1.2,0,0,0-.24,1.342c.049.108.1.219.138.33a1.2,1.2,0,0,0,1.119.773h.44a.4.4,0,0,1,.4.4v1.6Z" transform="translate(0 -162.667)" fill="#707070"/>
    <path id="Trazado_2861" data-name="Trazado 2861" d="M101.014,267.974c0-.1-.011-.192-.022-.287s-.028-.2-.049-.3c-.014-.065-.032-.13-.05-.194q-.034-.124-.076-.244c-.02-.056-.04-.111-.061-.166a3.584,3.584,0,0,0-.176-.374c-.005-.009-.008-.019-.014-.028a3.529,3.529,0,0,0-.36-.524c-.012-.014-.025-.028-.037-.042-.055-.065-.112-.128-.172-.189-.031-.032-.064-.063-.1-.094s-.08-.074-.12-.109-.1-.083-.148-.122l-.066-.049a3.574,3.574,0,0,0-2.145-.714c-.04,0-.08.006-.12.008-.085,0-.171.007-.257.016l-.136.016a3.65,3.65,0,0,0-.388.072,3.6,3.6,0,0,0,0,6.976.092.092,0,0,1,.02,0,3.81,3.81,0,0,0,.419.08c.093.012.186.014.28.018.062,0,.12.012.185.012.114,0,.232-.008.353-.02a.4.4,0,0,0,.04-.005c.1-.011.2-.025.3-.045.04-.008.077-.018.116-.026.07-.016.14-.034.212-.055.056-.017.11-.036.165-.056l.168-.062c.057-.022.1-.046.156-.07.067-.031.134-.061.2-.1h0a4.742,4.742,0,0,0,1.025-.74,1.264,1.264,0,0,0,.214-.262,4.268,4.268,0,0,0,.6-1.644c.011-.077.021-.154.027-.233s.01-.144.011-.216c0-.023,0-.044,0-.067C101.022,268.08,101.016,268.028,101.014,267.974Zm-4.295-2.552a2.891,2.891,0,0,1,.7-.088,2.794,2.794,0,0,1,.342.023l.09.014c.086.014.172.031.256.052l.082.021a2.81,2.81,0,0,1,.61.257l.091.056c.063.04.124.08.185.126.032.024.065.047.1.072a2.966,2.966,0,0,1,.225.2c.028.029.054.06.082.09.046.05.091.1.134.155.03.037.058.076.086.114.04.058.08.118.116.178l.06.1a2.709,2.709,0,0,1,.138.293c.016.04.03.08.044.12.026.074.048.148.068.223.01.04.021.076.03.114a2.829,2.829,0,0,1,.051.328c0,.029,0,.059,0,.088.006.092.007.184,0,.277,0,.033,0,.066,0,.1-.007.1-.02.194-.036.291a2.807,2.807,0,0,1-1.406,1.96c-.05.026-.1.05-.147.073l-.033.016a2.89,2.89,0,0,1-.73.221l-.054.008c-.05.007-.1.013-.148.018-.064.006-.129.009-.2.01H97.38a2.8,2.8,0,0,1-.283-.018l-.048-.006a2.924,2.924,0,0,1-.327-.062,2.8,2.8,0,0,1,0-5.424Z" transform="translate(-89.422 -252.134)" fill="#707070"/>
    <path id="Trazado_2862" data-name="Trazado 2862" d="M111.516,8.4h-1.258a.391.391,0,0,1-.373-.262,8.294,8.294,0,0,0-.449-1.084.392.392,0,0,1,.077-.452l.892-.893a1.2,1.2,0,0,0,0-1.7l-1.7-1.7a1.2,1.2,0,0,0-1.7,0l-.892.891a.392.392,0,0,1-.451.077,8.287,8.287,0,0,0-1.085-.452.39.39,0,0,1-.264-.373V1.2a1.2,1.2,0,0,0-1.2-1.2h-2.4a1.2,1.2,0,0,0-1.2,1.2V2.458a.391.391,0,0,1-.262.373,8.357,8.357,0,0,0-1.084.451.391.391,0,0,1-.452-.077l-.893-.892a1.2,1.2,0,0,0-1.7,0l-1.7,1.7a1.2,1.2,0,0,0,0,1.7l1.312,1.314a.4.4,0,0,0,.566-.565L94,5.143a.4.4,0,0,1,0-.566l1.7-1.7a.4.4,0,0,1,.566,0l.894.892A1.189,1.189,0,0,0,98.527,4a7.542,7.542,0,0,1,.98-.408,1.19,1.19,0,0,0,.808-1.132V1.2a.4.4,0,0,1,.4-.4h2.4a.4.4,0,0,1,.4.4V2.458a1.189,1.189,0,0,0,.808,1.132,7.553,7.553,0,0,1,.981.408,1.192,1.192,0,0,0,1.374-.226l.894-.892a.4.4,0,0,1,.566,0l1.7,1.7a.4.4,0,0,1,0,.565l-.892.894a1.19,1.19,0,0,0-.226,1.374,7.542,7.542,0,0,1,.408.98,1.19,1.19,0,0,0,1.132.808h1.258a.4.4,0,0,1,.4.4V12a.4.4,0,0,1-.4.4h-1.258a1.189,1.189,0,0,0-1.132.808,7.553,7.553,0,0,1-.408.981,1.19,1.19,0,0,0,.226,1.374l.892.894a.4.4,0,0,1,0,.566l-1.7,1.7a.4.4,0,0,1-.565,0l-1.314-1.312a.4.4,0,1,0-.575.556l.01.01,1.314,1.312a1.2,1.2,0,0,0,1.7,0l1.7-1.7a1.2,1.2,0,0,0,0-1.7L109.511,15a.392.392,0,0,1-.077-.451,8.288,8.288,0,0,0,.452-1.085.39.39,0,0,1,.373-.264h1.258a1.2,1.2,0,0,0,1.2-1.2V9.6A1.2,1.2,0,0,0,111.516,8.4Z" transform="translate(-88.716 0)" fill="#707070"/>
    <path id="Trazado_2863" data-name="Trazado 2863" d="M208.23,121.041a5.205,5.205,0,0,0-7.354,0,.4.4,0,0,0,.566.566,4.4,4.4,0,1,1,6.264,6.181l-.042.042a.4.4,0,1,0,.556.575l.01-.01A5.205,5.205,0,0,0,208.23,121.041Z" transform="translate(-191.353 -113.918)" fill="#707070"/>
  </g>
</svg>
