<svg xmlns="http://www.w3.org/2000/svg" xmlns:xlink="http://www.w3.org/1999/xlink" width="22" height="24.158" viewBox="0 0 22 24.158">
  <defs>
    <linearGradient id="linear-gradient" x1="0.5" x2="0.5" y2="1" gradientUnits="objectBoundingBox">
      <stop offset="0" stop-color="#ff6b39"/>
      <stop offset="1" stop-color="#ffb81c"/>
    </linearGradient>
  </defs>
  <g id="file-ico" transform="translate(0 0)">
    <path id="Trazado_2911" data-name="Trazado 2911" d="M334.74,155.055l2.754,2.758.66.66,1.139-1.139-3.414-3.414Z" transform="translate(-318.972 -146.174)" fill="#ffb81c"/>
    <path id="Trazado_2912" data-name="Trazado 2912" d="M359.4,128.541a2.289,2.289,0,0,0-.4.077,2.41,2.41,0,0,0-1.047.616l-.568.572,3.414,3.414.568-.568a2.416,2.416,0,0,0-1.965-4.111Z" transform="translate(-340.472 -122.058)" fill="#ffb81c"/>
    <path id="Trazado_2913" data-name="Trazado 2913" d="M173.524,176.48l-8.544,8.544,2.279,1.138,5.125-5.125-5.125,5.125.514,1.027.625,1.248,8.282-8.282.258-.258-.66-.66Zm0,3.418.569-.569Z" transform="translate(-157.756 -167.598)" fill="url(#linear-gradient)"/>
    <g id="Grupo_227" data-name="Grupo 227" transform="translate(0.404 0.403)">
      <path id="Trazado_2914" data-name="Trazado 2914" d="M167.8,348.391l-.514-1.027L165,346.224v0l2.278,1.139Z" transform="translate(-158.182 -329.202)" fill="#fff"/>
      <path id="Trazado_2915" data-name="Trazado 2915" d="M39.074,27.189l.625,1.248-3.986.57.569-3.986,8.543-8.541,1.139-1.135.568-.572a2.41,2.41,0,0,1,1.047-.616,2.291,2.291,0,0,1,.4-.076V8.805A.808.808,0,0,0,47.176,8H34.694v4.026a.805.805,0,0,1-.805.805H29.46V30.547a.808.808,0,0,0,.805.805h16.91a.808.808,0,0,0,.805-.805V20.155L39.7,28.437Z" transform="translate(-29.46 -8)" fill="#fff"/>
    </g>
    <path id="Trazado_2916" data-name="Trazado 2916" d="M157.678,349.671l-.625-1.248-.514-1.028-2.278-1.139-.569,3.986Zm-3.7.285.854-.854Z" transform="translate(-147.036 -328.83)" fill="#ffb81c"/>
    <path id="Trazado_2917" data-name="Trazado 2917" d="M34.694,12.026V8L29.46,12.832h4.429A.805.805,0,0,0,34.694,12.026Z" transform="translate(-29.056 -7.597)" fill="#fff"/>
    <g id="Grupo_228" data-name="Grupo 228" transform="translate(0 0)">
      <path id="Trazado_2918" data-name="Trazado 2918" d="M42.61,6.89a2.8,2.8,0,0,0-1.847-.819V1.208A1.208,1.208,0,0,0,39.555,0H27.074c-.008,0-.017,0-.025,0a.4.4,0,0,0-.094.018l-.04.012A.4.4,0,0,0,26.8.107L21.565,4.939a.394.394,0,0,0-.085.121.338.338,0,0,0-.015.04.4.4,0,0,0-.023.112c0,.008-.005.016-.005.025V22.95a1.208,1.208,0,0,0,1.208,1.208H39.555a1.208,1.208,0,0,0,1.208-1.208V12.723l1.846-1.846a2.818,2.818,0,0,0,0-3.986l0,0ZM26.671,1.322V4.429a.4.4,0,0,1-.4.4h-3.4ZM39.958,13.528V22.95a.4.4,0,0,1-.4.4H22.645a.4.4,0,0,1-.4-.4V5.637h4.026a1.208,1.208,0,0,0,1.208-1.208V.805H39.555a.4.4,0,0,1,.4.4V6.143l-.11.028a2.827,2.827,0,0,0-1.223.719l-10.25,10.25a.463.463,0,0,0-.035.045l-.01.013a.4.4,0,0,0-.064.161s0,0,0,.007l0,.025L27.7,21.351a.4.4,0,0,0,.4.46.4.4,0,0,0,.057,0l3.986-.569c.007,0,.013-.006.02-.008a.4.4,0,0,0,.066-.018l.024-.011a.389.389,0,0,0,.054-.029c.008-.005.015-.012.023-.018a.405.405,0,0,0,.04-.032Zm-8.49,6.994-2.237.319.284-.284a.4.4,0,0,0-.569-.569l-.284.284.319-2.235,1.658.829.629,1.255Zm.337-1.127-.376-.753,4.919-4.918a.4.4,0,0,0-.559-.579l-.01.01-4.921,4.919-1.517-.761L37.2,9.452,40.049,12.3l-7.862,7.86Zm8.813-7.664L37.774,8.882l.569-.567,2.845,2.845Zm1.422-1.423-.282.282L38.911,7.745l.282-.286a2.013,2.013,0,0,1,.868-.512,1.893,1.893,0,0,1,.34-.065,2.013,2.013,0,0,1,1.639,3.425Z" transform="translate(-21.436)" fill="#707070"/>
      <path id="Trazado_2919" data-name="Trazado 2919" d="M327.879,225.208a.4.4,0,0,0-.569,0l-.569.569a.4.4,0,0,0,.56.579l.01-.01.569-.569A.4.4,0,0,0,327.879,225.208Z" transform="translate(-311.258 -213.761)" fill="#707070"/>
      <path id="Trazado_2920" data-name="Trazado 2920" d="M77.863,208.805h8.455a.4.4,0,0,0,0-.805H77.863a.4.4,0,1,0,0,.805Z" transform="translate(-74.64 -197.532)" fill="#707070"/>
      <path id="Trazado_2921" data-name="Trazado 2921" d="M77.863,256.805H83.9a.4.4,0,0,0,0-.805H77.863a.4.4,0,0,0,0,.805Z" transform="translate(-74.64 -243.116)" fill="#707070"/>
      <path id="Trazado_2922" data-name="Trazado 2922" d="M81.889,304.4a.4.4,0,0,0-.4-.4H77.863a.4.4,0,1,0,0,.805h3.624A.4.4,0,0,0,81.889,304.4Z" transform="translate(-74.64 -288.7)" fill="#707070"/>
      <path id="Trazado_2923" data-name="Trazado 2923" d="M141.863,160.805h7.65a.4.4,0,1,0,0-.805h-7.65a.4.4,0,1,0,0,.805Z" transform="translate(-135.419 -151.947)" fill="#707070"/>
      <path id="Trazado_2924" data-name="Trazado 2924" d="M77.863,160.805h1.611a.4.4,0,0,0,0-.805H77.863a.4.4,0,1,0,0,.805Z" transform="translate(-74.64 -151.947)" fill="#707070"/>
    </g>
  </g>
</svg>
